# xmcd
#
# Track frame offsets: 
#        150
#        20733
#        44750
#        75500
#        100823
#        143973
#        174430
#        199828
#        224595
#        260928
#
# Disc length: 3792 seconds
#
# Revision: 0
# Processed by: cddbd v1.4PL0 Copyright (c) Steve Scherf et al.
# Submitted via: ExactAudioCopy v0.95a3
#
DISCID=990ece0a
DTITLE=Tom Castro-Johnny Nitro-Kevin Russel - S.F. Blues Guitar
DYEAR=1993
DGENRE=Blues
TTITLE0=Train Conductor
TTITLE1=You Know I Love Ya
TTITLE2=Nobody Else's Arms
TTITLE3=Alligator Alley
TTITLE4=I Tried
TTITLE5=Runnin' On Fumes
TTITLE6=Take It Like A Man
TTITLE7=You Got Something
TTITLE8=The Wrong Bed
TTITLE9=You Gotta Bell
EXTD=
EXTT0=
EXTT1=
EXTT2=
EXTT3=
EXTT4=
EXTT5=
EXTT6=
EXTT7=
EXTT8=
EXTT9=
PLAYORDER=
